<?xml version="1.0" encoding="UTF-8"?><svg xmlns="http://www.w3.org/2000/svg" xmlns:xlink="http://www.w3.org/1999/xlink" width="1200" zoomAndPan="magnify" viewBox="0 0 1200 299.999988" height="299.999988" preserveAspectRatio="xMidYMid meet" version="1.0"><defs><clipPath id="clip-0"><path d="M 214 67 L 265 67 L 265 149 L 214 149 Z M 214 67 " clip-rule="nonzero"/></clipPath><clipPath id="clip-1"><path d="M 120.695312 84.910156 L 257.789062 59.109375 L 276.097656 156.402344 L 139.007812 182.203125 Z M 120.695312 84.910156 " clip-rule="nonzero"/></clipPath><clipPath id="clip-2"><path d="M 120.695312 84.910156 L 257.789062 59.109375 L 276.097656 156.402344 L 139.007812 182.203125 Z M 120.695312 84.910156 " clip-rule="nonzero"/></clipPath><clipPath id="clip-3"><path d="M 211.113281 71.875 L 258.5 62.957031 L 273.5 142.652344 L 226.113281 151.570312 Z M 211.113281 71.875 " clip-rule="nonzero"/></clipPath><clipPath id="clip-4"><path d="M 211.113281 71.875 L 258.480469 62.960938 L 273.476562 142.65625 L 226.113281 151.570312 Z M 211.113281 71.875 " clip-rule="nonzero"/></clipPath><clipPath id="clip-5"><path d="M 235 137 L 241 137 L 241 142 L 235 142 Z M 235 137 " clip-rule="nonzero"/></clipPath><clipPath id="clip-6"><path d="M 120.695312 84.910156 L 257.789062 59.109375 L 276.097656 156.402344 L 139.007812 182.203125 Z M 120.695312 84.910156 " clip-rule="nonzero"/></clipPath><clipPath id="clip-7"><path d="M 120.695312 84.910156 L 257.789062 59.109375 L 276.097656 156.402344 L 139.007812 182.203125 Z M 120.695312 84.910156 " clip-rule="nonzero"/></clipPath><clipPath id="clip-8"><path d="M 219 68 L 245 68 L 245 81 L 219 81 Z M 219 68 " clip-rule="nonzero"/></clipPath><clipPath id="clip-9"><path d="M 120.695312 84.910156 L 257.789062 59.109375 L 276.097656 156.402344 L 139.007812 182.203125 Z M 120.695312 84.910156 " clip-rule="nonzero"/></clipPath><clipPath id="clip-10"><path d="M 120.695312 84.910156 L 257.789062 59.109375 L 276.097656 156.402344 L 139.007812 182.203125 Z M 120.695312 84.910156 " clip-rule="nonzero"/></clipPath><clipPath id="clip-11"><path d="M 216 80 L 220 80 L 220 87 L 216 87 Z M 216 80 " clip-rule="nonzero"/></clipPath><clipPath id="clip-12"><path d="M 120.695312 84.910156 L 257.789062 59.109375 L 276.097656 156.402344 L 139.007812 182.203125 Z M 120.695312 84.910156 " clip-rule="nonzero"/></clipPath><clipPath id="clip-13"><path d="M 120.695312 84.910156 L 257.789062 59.109375 L 276.097656 156.402344 L 139.007812 182.203125 Z M 120.695312 84.910156 " clip-rule="nonzero"/></clipPath><clipPath id="clip-14"><path d="M 181 116 L 226 116 L 226 162 L 181 162 Z M 181 116 " clip-rule="nonzero"/></clipPath><clipPath id="clip-15"><path d="M 120.695312 84.910156 L 257.789062 59.109375 L 276.097656 156.402344 L 139.007812 182.203125 Z M 120.695312 84.910156 " clip-rule="nonzero"/></clipPath><clipPath id="clip-16"><path d="M 120.695312 84.910156 L 257.789062 59.109375 L 276.097656 156.402344 L 139.007812 182.203125 Z M 120.695312 84.910156 " clip-rule="nonzero"/></clipPath><clipPath id="clip-17"><path d="M 182 117 L 224 117 L 224 160 L 182 160 Z M 182 117 " clip-rule="nonzero"/></clipPath><clipPath id="clip-18"><path d="M 120.695312 84.910156 L 257.789062 59.109375 L 276.097656 156.402344 L 139.007812 182.203125 Z M 120.695312 84.910156 " clip-rule="nonzero"/></clipPath><clipPath id="clip-19"><path d="M 120.695312 84.910156 L 257.789062 59.109375 L 276.097656 156.402344 L 139.007812 182.203125 Z M 120.695312 84.910156 " clip-rule="nonzero"/></clipPath><clipPath id="clip-20"><path d="M 182 117 L 224 117 L 224 158 L 182 158 Z M 182 117 " clip-rule="nonzero"/></clipPath><clipPath id="clip-21"><path d="M 120.695312 84.910156 L 257.789062 59.109375 L 276.097656 156.402344 L 139.007812 182.203125 Z M 120.695312 84.910156 " clip-rule="nonzero"/></clipPath><clipPath id="clip-22"><path d="M 120.695312 84.910156 L 257.789062 59.109375 L 276.097656 156.402344 L 139.007812 182.203125 Z M 120.695312 84.910156 " clip-rule="nonzero"/></clipPath><clipPath id="clip-23"><path d="M 196 119 L 216 119 L 216 140 L 196 140 Z M 196 119 " clip-rule="nonzero"/></clipPath><clipPath id="clip-24"><path d="M 120.695312 84.910156 L 257.789062 59.109375 L 276.097656 156.402344 L 139.007812 182.203125 Z M 120.695312 84.910156 " clip-rule="nonzero"/></clipPath><clipPath id="clip-25"><path d="M 120.695312 84.910156 L 257.789062 59.109375 L 276.097656 156.402344 L 139.007812 182.203125 Z M 120.695312 84.910156 " clip-rule="nonzero"/></clipPath><clipPath id="clip-26"><path d="M 200 121 L 211 121 L 211 125 L 200 125 Z M 200 121 " clip-rule="nonzero"/></clipPath><clipPath id="clip-27"><path d="M 120.695312 84.910156 L 257.789062 59.109375 L 276.097656 156.402344 L 139.007812 182.203125 Z M 120.695312 84.910156 " clip-rule="nonzero"/></clipPath><clipPath id="clip-28"><path d="M 120.695312 84.910156 L 257.789062 59.109375 L 276.097656 156.402344 L 139.007812 182.203125 Z M 120.695312 84.910156 " clip-rule="nonzero"/></clipPath><clipPath id="clip-29"><path d="M 136 124 L 180 124 L 180 171 L 136 171 Z M 136 124 " clip-rule="nonzero"/></clipPath><clipPath id="clip-30"><path d="M 120.695312 84.910156 L 257.789062 59.109375 L 276.097656 156.402344 L 139.007812 182.203125 Z M 120.695312 84.910156 " clip-rule="nonzero"/></clipPath><clipPath id="clip-31"><path d="M 120.695312 84.910156 L 257.789062 59.109375 L 276.097656 156.402344 L 139.007812 182.203125 Z M 120.695312 84.910156 " clip-rule="nonzero"/></clipPath><clipPath id="clip-32"><path d="M 138 126 L 179 126 L 179 169 L 138 169 Z M 138 126 " clip-rule="nonzero"/></clipPath><clipPath id="clip-33"><path d="M 120.695312 84.910156 L 257.789062 59.109375 L 276.097656 156.402344 L 139.007812 182.203125 Z M 120.695312 84.910156 " clip-rule="nonzero"/></clipPath><clipPath id="clip-34"><path d="M 120.695312 84.910156 L 257.789062 59.109375 L 276.097656 156.402344 L 139.007812 182.203125 Z M 120.695312 84.910156 " clip-rule="nonzero"/></clipPath><clipPath id="clip-35"><path d="M 138 126 L 178 126 L 178 167 L 138 167 Z M 138 126 " clip-rule="nonzero"/></clipPath><clipPath id="clip-36"><path d="M 120.695312 84.910156 L 257.789062 59.109375 L 276.097656 156.402344 L 139.007812 182.203125 Z M 120.695312 84.910156 " clip-rule="nonzero"/></clipPath><clipPath id="clip-37"><path d="M 120.695312 84.910156 L 257.789062 59.109375 L 276.097656 156.402344 L 139.007812 182.203125 Z M 120.695312 84.910156 " clip-rule="nonzero"/></clipPath><clipPath id="clip-38"><path d="M 152 127 L 172 127 L 172 148 L 152 148 Z M 152 127 " clip-rule="nonzero"/></clipPath><clipPath id="clip-39"><path d="M 120.695312 84.910156 L 257.789062 59.109375 L 276.097656 156.402344 L 139.007812 182.203125 Z M 120.695312 84.910156 " clip-rule="nonzero"/></clipPath><clipPath id="clip-40"><path d="M 120.695312 84.910156 L 257.789062 59.109375 L 276.097656 156.402344 L 139.007812 182.203125 Z M 120.695312 84.910156 " clip-rule="nonzero"/></clipPath><clipPath id="clip-41"><path d="M 156 129 L 164 129 L 164 133 L 156 133 Z M 156 129 " clip-rule="nonzero"/></clipPath><clipPath id="clip-42"><path d="M 120.695312 84.910156 L 257.789062 59.109375 L 276.097656 156.402344 L 139.007812 182.203125 Z M 120.695312 84.910156 " clip-rule="nonzero"/></clipPath><clipPath id="clip-43"><path d="M 120.695312 84.910156 L 257.789062 59.109375 L 276.097656 156.402344 L 139.007812 182.203125 Z M 120.695312 84.910156 " clip-rule="nonzero"/></clipPath><clipPath id="clip-44"><path d="M 164 130 L 168 130 L 168 133 L 164 133 Z M 164 130 " clip-rule="nonzero"/></clipPath><clipPath id="clip-45"><path d="M 120.695312 84.910156 L 257.789062 59.109375 L 276.097656 156.402344 L 139.007812 182.203125 Z M 120.695312 84.910156 " clip-rule="nonzero"/></clipPath><clipPath id="clip-46"><path d="M 120.695312 84.910156 L 257.789062 59.109375 L 276.097656 156.402344 L 139.007812 182.203125 Z M 120.695312 84.910156 " clip-rule="nonzero"/></clipPath><clipPath id="clip-47"><path d="M 175 95 L 214 95 L 214 117 L 175 117 Z M 175 95 " clip-rule="nonzero"/></clipPath><clipPath id="clip-48"><path d="M 120.695312 84.910156 L 257.789062 59.109375 L 276.097656 156.402344 L 139.007812 182.203125 Z M 120.695312 84.910156 " clip-rule="nonzero"/></clipPath><clipPath id="clip-49"><path d="M 120.695312 84.910156 L 257.789062 59.109375 L 276.097656 156.402344 L 139.007812 182.203125 Z M 120.695312 84.910156 " clip-rule="nonzero"/></clipPath><clipPath id="clip-50"><path d="M 136 115 L 173 115 L 173 132 L 136 132 Z M 136 115 " clip-rule="nonzero"/></clipPath><clipPath id="clip-51"><path d="M 120.695312 84.910156 L 257.789062 59.109375 L 276.097656 156.402344 L 139.007812 182.203125 Z M 120.695312 84.910156 " clip-rule="nonzero"/></clipPath><clipPath id="clip-52"><path d="M 120.695312 84.910156 L 257.789062 59.109375 L 276.097656 156.402344 L 139.007812 182.203125 Z M 120.695312 84.910156 " clip-rule="nonzero"/></clipPath><clipPath id="clip-53"><path d="M 167 114 L 173 114 L 173 122 L 167 122 Z M 167 114 " clip-rule="nonzero"/></clipPath><clipPath id="clip-54"><path d="M 120.695312 84.910156 L 257.789062 59.109375 L 276.097656 156.402344 L 139.007812 182.203125 Z M 120.695312 84.910156 " clip-rule="nonzero"/></clipPath><clipPath id="clip-55"><path d="M 120.695312 84.910156 L 257.789062 59.109375 L 276.097656 156.402344 L 139.007812 182.203125 Z M 120.695312 84.910156 " clip-rule="nonzero"/></clipPath><clipPath id="clip-56"><path d="M 175 166 L 198 166 L 198 175 L 175 175 Z M 175 166 " clip-rule="nonzero"/></clipPath><clipPath id="clip-57"><path d="M 120.695312 84.910156 L 257.789062 59.109375 L 276.097656 156.402344 L 139.007812 182.203125 Z M 120.695312 84.910156 " clip-rule="nonzero"/></clipPath><clipPath id="clip-58"><path d="M 120.695312 84.910156 L 257.789062 59.109375 L 276.097656 156.402344 L 139.007812 182.203125 Z M 120.695312 84.910156 " clip-rule="nonzero"/></clipPath><clipPath id="clip-59"><path d="M 174.871094 168.839844 L 195.980469 164.867188 L 197.1875 171.277344 L 176.074219 175.25 Z M 174.871094 168.839844 " clip-rule="nonzero"/></clipPath><clipPath id="clip-60"><path d="M 174.871094 168.839844 L 195.980469 164.867188 L 197.183594 171.253906 L 176.070312 175.230469 Z M 174.871094 168.839844 " clip-rule="nonzero"/></clipPath><clipPath id="clip-61"><path d="M 1113 63 L 1145 63 L 1145 114 L 1113 114 Z M 1113 63 " clip-rule="nonzero"/></clipPath><clipPath id="clip-62"><path d="M 1107.335938 76.617188 L 1135.214844 58.964844 L 1161.695312 100.785156 L 1133.816406 118.4375 Z M 1107.335938 76.617188 " clip-rule="nonzero"/></clipPath><clipPath id="clip-63"><path d="M 1107.335938 76.617188 L 1135.214844 58.964844 L 1161.695312 100.785156 L 1133.816406 118.4375 Z M 1107.335938 76.617188 " clip-rule="nonzero"/></clipPath><clipPath id="clip-64"><path d="M 1107.546875 76.484375 L 1135.390625 58.855469 L 1161.871094 100.675781 L 1134.027344 118.304688 Z M 1107.546875 76.484375 " clip-rule="nonzero"/></clipPath><clipPath id="clip-65"><path d="M 1107.546875 76.484375 L 1135.015625 59.089844 L 1161.496094 100.914062 L 1134.027344 118.304688 Z M 1107.546875 76.484375 " clip-rule="nonzero"/></clipPath><clipPath id="clip-66"><path d="M 13 235 L 51 235 L 51 282 L 13 282 Z M 13 235 " clip-rule="nonzero"/></clipPath><clipPath id="clip-67"><path d="M 22.242188 231.097656 L 53.574219 241.460938 L 38.023438 288.457031 L 6.695312 278.089844 Z M 22.242188 231.097656 " clip-rule="nonzero"/></clipPath><clipPath id="clip-68"><path d="M 22.242188 231.097656 L 53.574219 241.460938 L 38.023438 288.457031 L 6.695312 278.089844 Z M 22.242188 231.097656 " clip-rule="nonzero"/></clipPath><clipPath id="clip-69"><path d="M 22.480469 231.175781 L 53.769531 241.527344 L 38.21875 288.519531 L 6.929688 278.167969 Z M 22.480469 231.175781 " clip-rule="nonzero"/></clipPath><clipPath id="clip-70"><path d="M 22.480469 231.175781 L 53.347656 241.386719 L 37.796875 288.382812 L 6.929688 278.167969 Z M 22.480469 231.175781 " clip-rule="nonzero"/></clipPath></defs><rect x="-120" width="1440" fill="rgb(100%, 100%, 100%)" y="-29.999999" height="359.999986" fill-opacity="1"/><rect x="-120" width="1440" fill="rgb(100%, 100%, 100%)" y="-29.999999" height="359.999986" fill-opacity="1"/><rect x="-120" width="1440" fill="rgb(0%, 0%, 0%)" y="-29.999999" height="359.999986" fill-opacity="1"/><g clip-path="url(#clip-0)"><g clip-path="url(#clip-1)"><g clip-path="url(#clip-2)"><g clip-path="url(#clip-3)"><g clip-path="url(#clip-4)"><path fill="rgb(0.389099%, 22.749329%, 52.549744%)" d="M 220.558594 100.835938 C 224.054688 103.621094 227.617188 102.839844 229.03125 100.617188 C 231.101562 97.363281 229.039062 95.492188 227.101562 93.320312 C 219.226562 84.515625 233.195312 71.949219 245.289062 79.746094 C 252.296875 84.265625 257.085938 93.890625 252.964844 102.726562 C 249.828125 108.75 242.324219 107.488281 237.640625 110.621094 C 233.128906 113.640625 233.351562 121.761719 234.265625 126.5625 C 235.722656 134.234375 245.546875 133.125 243.972656 124.4375 C 242.925781 118.648438 244.882812 118.078125 248.472656 117.171875 C 258.988281 114.515625 264.5 106.894531 264.277344 95.9375 C 264.09375 86.859375 259.519531 77.429688 252.628906 72.523438 C 245.203125 67.234375 235.742188 65.363281 226.453125 69.96875 C 215.246094 75.523438 209.464844 92 220.558594 100.835938 Z M 243.5 136.800781 C 250.308594 139.820312 244.925781 152.25 236.964844 147.75 C 230.699219 144.214844 234.289062 132.707031 243.5 136.800781 " fill-opacity="1" fill-rule="evenodd"/></g></g></g></g></g><g clip-path="url(#clip-5)"><g clip-path="url(#clip-6)"><g clip-path="url(#clip-7)"><path fill="rgb(100%, 100%, 100%)" d="M 236.03125 139.835938 C 235.773438 140.683594 236.136719 140.523438 236.65625 140.882812 C 237.363281 141.375 237.714844 141.125 238.316406 140.667969 C 239.863281 139.496094 240.210938 140.191406 240.578125 139.621094 C 241.15625 138.726562 239.988281 137.53125 239.121094 137.277344 C 237.441406 136.785156 236.4375 138.496094 236.03125 139.835938 " fill-opacity="1" fill-rule="evenodd"/></g></g></g><g clip-path="url(#clip-8)"><g clip-path="url(#clip-9)"><g clip-path="url(#clip-10)"><path fill="rgb(100%, 100%, 100%)" d="M 244.011719 70.605469 C 240.429688 71.972656 231.058594 68.804688 223.597656 77.179688 C 220.285156 80.894531 217.578125 82.023438 221.019531 76.773438 C 229.050781 64.519531 247.21875 69.386719 244.011719 70.605469 " fill-opacity="1" fill-rule="evenodd"/></g></g></g><g clip-path="url(#clip-11)"><g clip-path="url(#clip-12)"><g clip-path="url(#clip-13)"><path fill="rgb(100%, 100%, 100%)" d="M 216.929688 83.410156 C 216.902344 83.527344 216.867188 83.714844 216.851562 83.832031 C 216.777344 84.328125 216.75 84.875 216.894531 85.355469 C 217.824219 88.40625 219.140625 84.597656 219.308594 83.730469 C 219.375 83.375 219.425781 83.28125 219.40625 82.90625 C 219.378906 82.289062 219.414062 81.105469 218.648438 80.964844 C 217.820312 80.816406 217.074219 82.816406 216.929688 83.410156 " fill-opacity="1" fill-rule="evenodd"/></g></g></g><g clip-path="url(#clip-14)"><g clip-path="url(#clip-15)"><g clip-path="url(#clip-16)"><path fill="rgb(0.389099%, 22.749329%, 52.549744%)" d="M 200.035156 116.433594 C 201.117188 116.324219 201.546875 116.320312 202.636719 116.347656 C 207.628906 116.480469 212.621094 118.640625 216.371094 121.996094 C 225.132812 129.835938 228.699219 145.023438 220.59375 153.359375 C 213.726562 160.421875 206.253906 162.953125 196.28125 160.574219 C 182.8125 157.355469 177.691406 138.171875 183.347656 127.425781 C 185.257812 123.796875 187.800781 121.101562 191.371094 119 C 194.199219 117.332031 196.863281 116.757812 200.035156 116.433594 " fill-opacity="1" fill-rule="evenodd"/></g></g></g><g clip-path="url(#clip-17)"><g clip-path="url(#clip-18)"><g clip-path="url(#clip-19)"><path fill="rgb(79.998779%, 79.998779%, 79.998779%)" d="M 200.253906 118.078125 C 201.253906 117.976562 201.652344 117.972656 202.664062 118 C 207.289062 118.121094 211.917969 120.121094 215.390625 123.230469 C 223.507812 130.496094 226.816406 144.570312 219.300781 152.296875 C 212.941406 158.835938 206.015625 161.183594 196.773438 158.976562 C 184.292969 156 179.546875 138.222656 184.789062 128.265625 C 186.558594 124.902344 188.914062 122.402344 192.222656 120.453125 C 194.84375 118.910156 197.3125 118.378906 200.253906 118.078125 " fill-opacity="1" fill-rule="evenodd"/></g></g></g><g clip-path="url(#clip-20)"><g clip-path="url(#clip-21)"><g clip-path="url(#clip-22)"><path fill="rgb(100%, 100%, 100%)" d="M 200.253906 118.078125 C 201.253906 117.976562 201.652344 117.972656 202.664062 118 C 207.289062 118.121094 211.917969 120.121094 215.390625 123.230469 C 219.320312 126.75 222.121094 131.859375 223.117188 137.074219 C 223.59375 141.957031 222.414062 146.761719 219.007812 150.265625 C 212.648438 156.804688 205.722656 159.152344 196.476562 156.945312 C 188.941406 155.144531 184.226562 147.945312 182.828125 140.332031 C 182.371094 136 182.996094 131.671875 184.789062 128.265625 C 186.558594 124.902344 188.914062 122.402344 192.222656 120.453125 C 194.84375 118.910156 197.3125 118.378906 200.253906 118.078125 " fill-opacity="1" fill-rule="evenodd"/></g></g></g><g clip-path="url(#clip-23)"><g clip-path="url(#clip-24)"><g clip-path="url(#clip-25)"><path fill="rgb(0.389099%, 22.749329%, 52.549744%)" d="M 201.601562 120.78125 C 201.183594 120.984375 201.027344 121.082031 200.632812 121.339844 C 198.84375 122.515625 197.511719 124.4375 196.90625 126.507812 C 195.492188 131.355469 197.636719 137.699219 202.484375 138.902344 C 206.589844 139.921875 209.890625 139.152344 212.988281 136.023438 C 217.167969 131.800781 214.683594 123.644531 210.183594 121.007812 C 208.660156 120.117188 207.121094 119.710938 205.34375 119.75 C 203.933594 119.785156 202.832031 120.179688 201.601562 120.78125 " fill-opacity="1" fill-rule="evenodd"/></g></g></g><g clip-path="url(#clip-26)"><g clip-path="url(#clip-27)"><g clip-path="url(#clip-28)"><path fill="rgb(100%, 100%, 100%)" d="M 203.132812 121.355469 C 203.285156 121.304688 203.53125 121.230469 203.691406 121.195312 C 204.359375 121.035156 205.09375 120.929688 205.765625 121.070312 C 206.953125 121.3125 207.460938 121.113281 206.746094 123.175781 C 206.6875 123.347656 206.636719 123.523438 206.503906 123.652344 C 206.050781 124.089844 204.542969 124.332031 203.855469 124.527344 C 203.386719 124.660156 203.265625 124.742188 202.753906 124.765625 C 201.910156 124.800781 200.308594 124.996094 200.023438 123.976562 C 199.71875 122.878906 202.339844 121.621094 203.132812 121.355469 Z M 210.339844 122.566406 C 209.820312 121.996094 208.917969 121.378906 208.199219 122.019531 C 207.824219 122.351562 207.496094 123.429688 207.992188 123.738281 C 208.3125 123.9375 208.320312 123.507812 209.367188 123.726562 C 209.773438 123.8125 210.007812 123.851562 210.246094 123.441406 C 210.417969 123.140625 210.667969 122.929688 210.339844 122.566406 " fill-opacity="1" fill-rule="evenodd"/></g></g></g><g clip-path="url(#clip-29)"><g clip-path="url(#clip-30)"><g clip-path="url(#clip-31)"><path fill="rgb(0.389099%, 22.749329%, 52.549744%)" d="M 154.4375 125.484375 C 153.367188 125.683594 152.957031 125.804688 151.917969 126.140625 C 147.167969 127.679688 142.992188 131.171875 140.351562 135.453125 C 134.167969 145.460938 135.054688 161.035156 145.191406 166.730469 C 153.777344 171.550781 161.660156 171.859375 170.550781 166.742188 C 182.554688 159.835938 182.027344 139.988281 173.554688 131.289062 C 170.695312 128.351562 167.492188 126.484375 163.472656 125.484375 C 160.289062 124.6875 157.574219 124.894531 154.4375 125.484375 " fill-opacity="1" fill-rule="evenodd"/></g></g></g><g clip-path="url(#clip-32)"><g clip-path="url(#clip-33)"><g clip-path="url(#clip-34)"><path fill="rgb(79.998779%, 79.998779%, 79.998779%)" d="M 154.695312 127.121094 C 153.707031 127.308594 153.324219 127.417969 152.363281 127.730469 C 147.960938 129.160156 144.089844 132.390625 141.640625 136.359375 C 135.914062 145.632812 136.734375 160.066406 146.128906 165.339844 C 154.082031 169.808594 161.390625 170.09375 169.628906 165.355469 C 180.75 158.953125 180.261719 140.5625 172.410156 132.5 C 169.761719 129.777344 166.792969 128.050781 163.066406 127.121094 C 160.117188 126.386719 157.601562 126.574219 154.695312 127.121094 " fill-opacity="1" fill-rule="evenodd"/></g></g></g><g clip-path="url(#clip-35)"><g clip-path="url(#clip-36)"><g clip-path="url(#clip-37)"><path fill="rgb(100%, 100%, 100%)" d="M 154.695312 127.121094 C 153.707031 127.308594 153.324219 127.417969 152.363281 127.730469 C 147.960938 129.160156 144.089844 132.390625 141.640625 136.359375 C 138.886719 140.824219 137.644531 146.480469 138.148438 151.738281 C 139.085938 156.523438 141.578125 160.761719 145.808594 163.136719 C 153.765625 167.605469 161.070312 167.890625 169.308594 163.148438 C 176 159.300781 178.488281 151.109375 177.699219 143.4375 C 176.898438 139.183594 175.082031 135.242188 172.410156 132.5 C 169.761719 129.777344 166.792969 128.050781 163.066406 127.121094 C 160.117188 126.386719 157.601562 126.574219 154.695312 127.121094 " fill-opacity="1" fill-rule="evenodd"/></g></g></g><g clip-path="url(#clip-38)"><g clip-path="url(#clip-39)"><g clip-path="url(#clip-40)"><path fill="rgb(0.389099%, 22.749329%, 52.549744%)" d="M 158.203125 128.84375 C 157.777344 129.035156 157.617188 129.125 157.21875 129.371094 C 155.390625 130.492188 154 132.367188 153.328125 134.421875 C 151.761719 139.21875 153.703125 145.628906 158.511719 146.988281 C 162.582031 148.132812 165.90625 147.46875 169.097656 144.441406 C 173.414062 140.351562 171.1875 132.121094 166.773438 129.34375 C 165.28125 128.402344 163.753906 127.949219 161.976562 127.933594 C 160.566406 127.921875 159.453125 128.28125 158.203125 128.84375 " fill-opacity="1" fill-rule="evenodd"/></g></g></g><g clip-path="url(#clip-41)"><g clip-path="url(#clip-42)"><g clip-path="url(#clip-43)"><path fill="rgb(100%, 100%, 100%)" d="M 159.714844 129.46875 C 159.871094 129.421875 160.117188 129.355469 160.277344 129.324219 C 160.953125 129.1875 161.691406 129.105469 162.355469 129.265625 C 163.53125 129.546875 164.050781 129.363281 163.269531 131.402344 C 163.203125 131.570312 163.148438 131.746094 163.011719 131.871094 C 162.542969 132.292969 161.027344 132.488281 160.335938 132.660156 C 159.863281 132.78125 159.738281 132.855469 159.226562 132.863281 C 158.386719 132.871094 156.777344 133.015625 156.527344 131.988281 C 156.253906 130.878906 158.914062 129.710938 159.714844 129.46875 " fill-opacity="1" fill-rule="evenodd"/></g></g></g><g clip-path="url(#clip-44)"><g clip-path="url(#clip-45)"><g clip-path="url(#clip-46)"><path fill="rgb(100%, 100%, 100%)" d="M 166.878906 130.90625 C 167.195312 131.277344 166.941406 131.480469 166.757812 131.777344 C 166.507812 132.179688 166.273438 132.132812 165.871094 132.035156 C 164.832031 131.78125 164.808594 132.210938 164.496094 132.003906 C 164.007812 131.675781 164.375 130.613281 164.753906 130.292969 C 165.496094 129.675781 166.378906 130.320312 166.878906 130.90625 " fill-opacity="1" fill-rule="evenodd"/></g></g></g><g clip-path="url(#clip-47)"><g clip-path="url(#clip-48)"><g clip-path="url(#clip-49)"><path fill="rgb(0.389099%, 22.749329%, 52.549744%)" d="M 176.210938 116.488281 C 171.730469 101.492188 196.902344 86.566406 213.015625 101.847656 C 196.75 93.761719 177.925781 102.191406 176.210938 116.488281 " fill-opacity="1" fill-rule="evenodd"/></g></g></g><g clip-path="url(#clip-50)"><g clip-path="url(#clip-51)"><g clip-path="url(#clip-52)"><path fill="rgb(0.389099%, 22.749329%, 52.549744%)" d="M 172.195312 124.773438 C 169.359375 111.605469 143.105469 112.5 136.867188 131.378906 C 146.289062 117.730469 164.757812 115.046875 172.195312 124.773438 " fill-opacity="1" fill-rule="evenodd"/></g></g></g><g clip-path="url(#clip-53)"><g clip-path="url(#clip-54)"><g clip-path="url(#clip-55)"><path fill="rgb(0.389099%, 22.749329%, 52.549744%)" d="M 168.675781 116.160156 C 171.417969 118.082031 171.246094 120.691406 172.320312 121.511719 C 172.84375 121.910156 172.507812 116.035156 169.273438 114.636719 C 167.894531 114.042969 167.027344 115.003906 168.675781 116.160156 " fill-opacity="1" fill-rule="evenodd"/></g></g></g><g clip-path="url(#clip-56)"><g clip-path="url(#clip-57)"><g clip-path="url(#clip-58)"><g clip-path="url(#clip-59)"><g clip-path="url(#clip-60)"><path fill="rgb(0.389099%, 22.749329%, 52.549744%)" d="M 181.796875 172.707031 C 185.535156 169.96875 190.738281 169.253906 194.917969 171.019531 C 196.996094 171.894531 197.808594 171.105469 196.148438 169.613281 C 195.511719 169.039062 194.621094 168.445312 193.699219 167.980469 C 189.75 165.972656 182.351562 166.792969 177.703125 169.082031 C 175.164062 170.351562 174.953125 170.742188 175.558594 171.101562 C 177.933594 172.519531 177.253906 172 179.476562 173.996094 C 179.992188 174.453125 180.210938 173.871094 181.796875 172.707031 " fill-opacity="1" fill-rule="evenodd"/></g></g></g></g></g><g clip-path="url(#clip-61)"><g clip-path="url(#clip-62)"><g clip-path="url(#clip-63)"><g clip-path="url(#clip-64)"><g clip-path="url(#clip-65)"><path fill="rgb(0.389099%, 22.749329%, 52.549744%)" d="M 1138.054688 107.546875 C 1138.988281 107.183594 1140.042969 107.113281 1141.21875 107.359375 C 1142.417969 107.609375 1143.332031 108.226562 1143.957031 109.214844 C 1144.4375 109.96875 1144.4375 110.757812 1143.960938 111.574219 C 1143.488281 112.363281 1142.734375 112.929688 1141.683594 113.25 C 1140.652344 113.570312 1139.578125 113.566406 1138.464844 113.253906 C 1137.363281 112.945312 1136.585938 112.425781 1136.113281 111.679688 C 1135.632812 110.917969 1135.574219 110.148438 1135.953125 109.355469 C 1136.328125 108.558594 1137.023438 107.949219 1138.054688 107.546875 Z M 1118.4375 70.644531 C 1121.765625 67.019531 1125.605469 64.667969 1129.933594 63.839844 C 1134.640625 62.949219 1138.28125 64.261719 1140.558594 67.855469 C 1141.832031 69.863281 1142.386719 72.175781 1142.226562 74.730469 C 1142.078125 77.222656 1141.550781 79.621094 1140.679688 81.902344 C 1139.832031 84.101562 1138.582031 86.921875 1136.96875 90.253906 C 1135.460938 93.378906 1134.683594 95.742188 1134.578125 97.46875 C 1134.476562 99.160156 1134.75 100.5 1135.390625 101.515625 C 1136.414062 103.132812 1136.351562 104.199219 1135.207031 104.699219 C 1134.617188 104.964844 1134.105469 104.957031 1133.65625 104.6875 C 1133.214844 104.417969 1132.59375 103.652344 1131.785156 102.378906 C 1130.980469 101.105469 1130.554688 99.605469 1130.511719 97.847656 C 1130.464844 96.0625 1131.042969 93.390625 1132.308594 89.6875 C 1133.6875 85.597656 1134.300781 82.34375 1134.070312 80.125 C 1133.839844 77.859375 1133.183594 75.867188 1132.117188 74.183594 C 1130.835938 72.160156 1128.988281 71.007812 1126.640625 70.726562 C 1124.367188 70.464844 1122.273438 71.339844 1120.375 73.269531 C 1118.214844 75.476562 1116.957031 77.675781 1116.523438 79.90625 C 1116.105469 82.0625 1116.425781 83.9375 1117.480469 85.605469 C 1118.0625 86.523438 1118.753906 87.144531 1119.574219 87.480469 C 1120.394531 87.816406 1121.140625 87.730469 1121.808594 87.203125 C 1122.023438 87.03125 1122.203125 86.839844 1122.339844 86.644531 C 1122.472656 86.445312 1122.636719 86.269531 1122.820312 86.121094 C 1123.253906 85.777344 1123.800781 85.582031 1124.449219 85.539062 C 1125.121094 85.5 1125.585938 85.683594 1125.855469 86.109375 C 1126.332031 86.859375 1126.332031 87.722656 1125.863281 88.6875 C 1125.410156 89.625 1124.699219 90.433594 1123.746094 91.109375 C 1122.410156 92.058594 1120.925781 92.308594 1119.289062 91.894531 C 1117.699219 91.484375 1116.292969 90.296875 1115.035156 88.3125 C 1113.609375 86.058594 1113.101562 83.425781 1113.535156 80.28125 C 1113.976562 76.972656 1115.558594 73.78125 1118.4375 70.644531 " fill-opacity="1" fill-rule="nonzero"/></g></g></g></g></g><g clip-path="url(#clip-66)"><g clip-path="url(#clip-67)"><g clip-path="url(#clip-68)"><g clip-path="url(#clip-69)"><g clip-path="url(#clip-70)"><path fill="rgb(0.389099%, 22.749329%, 52.549744%)" d="M 17.804688 274.460938 C 18.679688 274.957031 19.398438 275.726562 19.957031 276.789062 C 20.523438 277.875 20.625 278.972656 20.257812 280.082031 C 19.976562 280.933594 19.367188 281.433594 18.433594 281.582031 C 17.523438 281.71875 16.609375 281.492188 15.695312 280.882812 C 14.796875 280.289062 14.117188 279.457031 13.648438 278.398438 C 13.191406 277.351562 13.101562 276.417969 13.378906 275.582031 C 13.664062 274.726562 14.222656 274.195312 15.070312 273.984375 C 15.929688 273.769531 16.835938 273.921875 17.804688 274.460938 Z M 33.902344 235.894531 C 38.816406 236.167969 43.066406 237.648438 46.453125 240.472656 C 50.125 243.542969 51.421875 247.195312 50.085938 251.230469 C 49.335938 253.488281 47.902344 255.382812 45.824219 256.882812 C 43.800781 258.347656 41.613281 259.460938 39.296875 260.230469 C 37.0625 260.972656 34.085938 261.792969 30.488281 262.65625 C 27.117188 263.472656 24.792969 264.371094 23.394531 265.382812 C 22.019531 266.378906 21.15625 267.4375 20.777344 268.578125 C 20.175781 270.398438 19.3125 271.023438 18.199219 270.453125 C 17.621094 270.167969 17.304688 269.765625 17.226562 269.25 C 17.15625 268.734375 17.351562 267.769531 17.828125 266.335938 C 18.300781 264.90625 19.191406 263.625 20.519531 262.480469 C 21.875 261.3125 24.304688 260.066406 27.972656 258.695312 C 32.007812 257.164062 34.914062 255.578125 36.484375 253.996094 C 38.089844 252.378906 39.214844 250.605469 39.839844 248.71875 C 40.589844 246.445312 40.3125 244.28125 39.039062 242.285156 C 37.800781 240.363281 35.796875 239.300781 33.097656 239.058594 C 30.023438 238.785156 27.527344 239.210938 25.523438 240.285156 C 23.59375 241.328125 22.347656 242.765625 21.726562 244.640625 C 21.386719 245.671875 21.339844 246.601562 21.605469 247.445312 C 21.863281 248.296875 22.402344 248.816406 23.234375 249 C 23.507812 249.058594 23.765625 249.074219 24.003906 249.054688 C 24.242188 249.03125 24.484375 249.046875 24.714844 249.097656 C 25.253906 249.214844 25.75 249.511719 26.195312 249.988281 C 26.648438 250.480469 26.804688 250.957031 26.644531 251.4375 C 26.367188 252.28125 25.699219 252.828125 24.660156 253.078125 C 23.648438 253.320312 22.570312 253.285156 21.441406 252.976562 C 19.859375 252.542969 18.730469 251.554688 18.011719 250.027344 C 17.320312 248.539062 17.34375 246.695312 18.082031 244.464844 C 18.921875 241.933594 20.636719 239.871094 23.339844 238.210938 C 26.179688 236.457031 29.652344 235.65625 33.902344 235.894531 " fill-opacity="1" fill-rule="nonzero"/></g></g></g></g></g></svg>