<?xml version="1.0" encoding="UTF-8" standalone="no"?>
<!-- Created with Inkscape (http://www.inkscape.org/) -->

<svg
   width="11.797645mm"
   height="13.565287mm"
   viewBox="0 0 11.797645 13.565287"
   version="1.1"
   id="svg884"
   inkscape:version="1.1.1 (3bf5ae0d25, 2021-09-20)"
   sodipodi:docname="mobile-logo.svg"
   xmlns:inkscape="http://www.inkscape.org/namespaces/inkscape"
   xmlns:sodipodi="http://sodipodi.sourceforge.net/DTD/sodipodi-0.dtd"
   xmlns="http://www.w3.org/2000/svg"
   xmlns:svg="http://www.w3.org/2000/svg">
  <sodipodi:namedview
     id="namedview886"
     pagecolor="#ffffff"
     bordercolor="#666666"
     borderopacity="1.0"
     inkscape:pageshadow="2"
     inkscape:pageopacity="0.0"
     inkscape:pagecheckerboard="0"
     inkscape:document-units="mm"
     showgrid="false"
     inkscape:zoom="7.3792569"
     inkscape:cx="46.0751"
     inkscape:cy="1.490665"
     inkscape:window-width="1744"
     inkscape:window-height="2044"
     inkscape:window-x="2037"
     inkscape:window-y="57"
     inkscape:window-maximized="1"
     inkscape:current-layer="layer1" />
  <defs
     id="defs881" />
  <g
     inkscape:label="Layer 1"
     inkscape:groupmode="layer"
     id="layer1"
     transform="translate(-97.523855,-54.448681)">
    <path
       id="path1111"
       d="m 98.434614,67.994222 4.662356,-9.615411 3.63004,7.952703 -3.49304,-11.737518 z"
       style="fill:#000000;stroke:#000000;stroke-width:0.0905141px;stroke-linecap:butt;stroke-linejoin:miter;stroke-opacity:1"
       sodipodi:nodetypes="ccccc" />
    <path
       id="path1115"
       style="fill:#ff0000;stroke:none;stroke-width:0.110455;stroke-linecap:square;stroke-miterlimit:4;stroke-dasharray:none"
       d="m 106.8942,58.629722 a 0.67223249,6.4284722 66.44266 0 0 -1.86263,0.689079 l 0.18881,0.02832 a 0.41154784,3.9355785 66.44266 0 1 0.18237,-0.06309 0.41154784,3.9355785 66.44266 0 1 1.36596,-0.337365 0.41154784,3.9355785 66.44266 0 1 -2.59994,1.66481 0.41154784,3.9355785 66.44266 0 1 -4.395856,1.568813 0.41154784,3.9355785 66.44266 0 1 0.379476,-0.50102 l 0.10169,-0.217756 a 0.67223249,6.4284722 66.44266 0 0 -2.544996,1.895281 0.67223249,6.4284722 66.44266 0 0 7.180266,-2.56254 0.67223249,6.4284722 66.44266 0 0 4.24693,-2.719345 0.67223249,6.4284722 66.44266 0 0 -2.20611,0.542518 0.67223249,6.4284722 66.44266 0 0 -0.0361,0.01237 z"
       inkscape:export-filename="C:\Users\shira\Documents\FEOTA\Designs\logo4.png"
       inkscape:export-xdpi="586.9198"
       inkscape:export-ydpi="586.9198" />
  </g>
</svg>
